<svg xmlns="http://www.w3.org/2000/svg" width="790" height="641.5" viewBox="0 0 790 641.5">
  <path id="Subtraction_7" data-name="Subtraction 7" d="M1975,2310a402.007,402.007,0,0,1-40.386-2.036,395.3,395.3,0,0,1-323.573-238.754,391.361,391.361,0,0,1-29-113.15,399.832,399.832,0,0,1-2.039-40.31c0-11.575.509-23.261,1.512-34.731.99-11.324,2.488-22.726,4.451-33.89a391.1,391.1,0,0,1,44.667-124.633,396.135,396.135,0,0,1,36.686-54,396.435,396.435,0,0,0,134.364,107.116,393.046,393.046,0,0,0,127.368,37.243,401.326,401.326,0,0,0,91.906,0A395.215,395.215,0,0,0,2282.685,1668.5a393.412,393.412,0,0,1,64.14,113.875,392.028,392.028,0,0,1,17.213,64.754c1.963,11.162,3.46,22.565,4.45,33.89,1,11.47,1.512,23.155,1.512,34.731a399.8,399.8,0,0,1-2.039,40.31,394.353,394.353,0,0,1-352.574,351.9A402.008,402.008,0,0,1,1975,2310Z" transform="translate(-1580 -1668.5)" fill="#18b6ff"/>
</svg>
