<svg xmlns="http://www.w3.org/2000/svg" width="35.398" height="40.779" viewBox="0 0 35.398 40.779">
  <path id="np_handshake_434008_000000" d="M48.6,40a7.349,7.349,0,0,1-2.419-4.521C47.991,33.3,49.29,30.89,49.1,28.663a4.589,4.589,0,0,0-.3-1.038,5.16,5.16,0,0,1-.36-1.282,3.449,3.449,0,0,1,.151-.518,4.644,4.644,0,0,0,.16-2.911,2.665,2.665,0,0,0-1-1.53,1.508,1.508,0,0,1-.211-.2,1.212,1.212,0,0,1,.04-.737A3.16,3.16,0,0,0,47.37,18.1a2.86,2.86,0,0,0-1.5-1.366,2.326,2.326,0,0,1-.253-.131,2.03,2.03,0,0,1-.04-.471A3.289,3.289,0,0,0,44.57,13.59a3.388,3.388,0,0,0-2.189-.935,3.91,3.91,0,0,0-.9-3.056,2.928,2.928,0,0,0-2.791-.714,21.332,21.332,0,0,0-5.014,1.983c-2.08-.625-3.225.114-4.656,1.04-.179.116-.37.238-.568.364a14.2,14.2,0,0,0-1.236.871.748.748,0,0,0-.227-.057c-2.4-.171-6.784-.472-7.622,3.279a5.01,5.01,0,0,0-2.991,3.543,3.655,3.655,0,0,0,.027,1.248A4.134,4.134,0,0,0,14.694,24.1,3.555,3.555,0,0,0,15.15,26c-.015.023-.032.042-.046.067a4.854,4.854,0,0,0-.423,4.357,5.972,5.972,0,0,0,2.92,2.713,6.772,6.772,0,0,1-1.676,5.079.731.731,0,0,0,1.048,1.019,7.959,7.959,0,0,0,2.105-5.468,20.4,20.4,0,0,0,2.416.69,10.474,10.474,0,0,0,2.28.286,3.851,3.851,0,0,0,2.875-1,3.226,3.226,0,0,0,.834-2.381,3.663,3.663,0,0,0,1.861-.476,3.365,3.365,0,0,0,1.276-3.082,2.834,2.834,0,0,0,.762-.343C33.448,26.088,32.65,23.457,32.49,23a3.346,3.346,0,0,0,.265-.617A4.3,4.3,0,0,0,31.83,18.3a9.922,9.922,0,0,1,2.652-.96,13.476,13.476,0,0,0,4.991-2.254c2.53-1.655,3.745-.77,4.058-.459a1.87,1.87,0,0,1,.581,1.537v.011c0,1.276-1.985,3.8-3.692,5.119a.732.732,0,0,0,.448,1.311.722.722,0,0,0,.446-.152,14.388,14.388,0,0,0,3.762-4.479c.055.029.11.055.164.08a1.453,1.453,0,0,1,.817.7,1.7,1.7,0,0,1,.1,1.328,14.432,14.432,0,0,1-3.81,5.673.731.731,0,1,0,1.025,1.044,16.88,16.88,0,0,0,3.349-4.378c.029.025.057.051.086.074a1.247,1.247,0,0,1,.518.756,3.083,3.083,0,0,1-.023,1.785,16.439,16.439,0,0,1-2.734,4.692.73.73,0,1,0,1.1.958,18.258,18.258,0,0,0,1.766-2.524,4.986,4.986,0,0,1,.2.613c.3,3.486-4.384,8.321-8.857,11.339a26.7,26.7,0,0,1-4.5,2.313A31.573,31.573,0,0,0,26.639,46.8a.731.731,0,1,0,.9,1.151,26.582,26.582,0,0,1,4.786-3.016.718.718,0,0,0,.2.173,9.328,9.328,0,0,1,3.24,3.469.732.732,0,0,0,.657.41.75.75,0,0,0,.322-.074.733.733,0,0,0,.335-.979,10.541,10.541,0,0,0-3.239-3.7c.343-.152.684-.3,1.023-.45A27.739,27.739,0,0,0,39.6,41.334a34.573,34.573,0,0,0,5.37-4.513A8.143,8.143,0,0,0,47.7,41.162a.732.732,0,0,0,1.025-.141A.716.716,0,0,0,48.6,40ZM25.858,14.493a2.486,2.486,0,0,0-.581,1.562,3.2,3.2,0,0,0,1.861,2.467,4.585,4.585,0,0,0,3.244.459.686.686,0,0,0,.1.082,2.726,2.726,0,0,1,.88,2.894,1.16,1.16,0,0,1-1.107.947c-1.623,0-6.857-2.059-8.853-4.351a2.083,2.083,0,0,1-.68-1.558c.269-1.93,1.644-2.627,5.136-2.5Zm-.25,18.235c-.6.621-1.915.728-3.789.307-3.164-.709-5.172-1.819-5.8-3.208a3.038,3.038,0,0,1,.122-2.534c.181.181.371.362.585.541,2.153,1.8,6.252,3.2,9.3,3.49a1.832,1.832,0,0,1-.415,1.4Zm2.907-3.037c-1.094.758-7.8-.432-10.855-2.983a3.3,3.3,0,0,1-1.5-2.528,2.471,2.471,0,0,1,.821-1.583,7.38,7.38,0,0,0,1.838,1.949,18.722,18.722,0,0,0,10.057,3.482c.1,0,.2,0,.3-.006a1.9,1.9,0,0,1-.657,1.669Zm2.063-3.441c-1.372.913-7.374-.181-10.872-2.865-.973-.749-2.092-1.92-1.886-3.25a3.276,3.276,0,0,1,1.581-2.12,4.429,4.429,0,0,0,.9,1.5c2.313,2.656,8.02,4.852,9.956,4.852a2.554,2.554,0,0,0,1.023-.215,2.026,2.026,0,0,1-.7,2.1ZM34.151,15.92a11.6,11.6,0,0,0-3.677,1.467,2.793,2.793,0,0,1-2.64-.152,1.857,1.857,0,0,1-1.1-1.257c-.017-.335.642-1.3,2.492-2.465.206-.13.4-.255.585-.375a4.5,4.5,0,0,1,2.427-1.042,3.856,3.856,0,0,1,1.288.261,13.283,13.283,0,0,1,2.846,1.492c.354.223.733.463,1.166.722a10.654,10.654,0,0,1-3.391,1.351Zm4.742-2.191a.7.7,0,0,0-.21-.183c-.589-.343-1.08-.653-1.526-.935-.6-.375-1.124-.707-1.7-1a16.144,16.144,0,0,1,3.5-1.284,1.565,1.565,0,0,1,1.478.3,2.7,2.7,0,0,1,.455,2.2,7.613,7.613,0,0,0-2,.9Z" transform="translate(-14.022 -8.504)" fill="" stroke="" stroke-width="0.6"/>
</svg>
