<svg xmlns="http://www.w3.org/2000/svg" width="60.5" height="60.5" viewBox="0 0 60.5 60.5">
  <g id="Group_1" data-name="Group 1" transform="translate(-150 -150)">
    <path id="Path_1" data-name="Path 1" d="M180,150a30,30,0,0,0-21.213,51.213l42.426-42.426A29.906,29.906,0,0,0,180,150Z" transform="translate(0 0)" fill="none"/>
    <path id="Subtraction_4" data-name="Subtraction 4" d="M1365.213,169.214A29.9,29.9,0,0,1,1344,160.426L1386.427,118a29.991,29.991,0,0,1-21.214,51.214Zm17.28-35.4a5.4,5.4,0,1,0,5.4,5.4A5.406,5.406,0,0,0,1382.493,133.813Z" transform="translate(-1185.213 40.787)" fill="#1fbdc4" stroke="rgba(0,0,0,0)" stroke-miterlimit="10" stroke-width="1"/>
    <circle id="Ellipse_2" data-name="Ellipse 2" cx="5.4" cy="5.4" r="5.4" transform="translate(157.32 174.6)" fill="#1fbdc4"/>
  </g>
</svg>
