<svg xmlns="http://www.w3.org/2000/svg" width="29" height="24.857" viewBox="0 0 29 24.857">
  <path id="Union_8" data-name="Union 8" d="M1497.642-33.143a2.072,2.072,0,0,1-2.071-2.072V-45.571A12.441,12.441,0,0,1,1508-58v4.143a8.293,8.293,0,0,0-8.286,8.286h6.214A2.073,2.073,0,0,1,1508-43.5v8.285a2.073,2.073,0,0,1-2.072,2.072Zm-16.571,0A2.073,2.073,0,0,1,1479-35.214V-45.571A12.441,12.441,0,0,1,1491.428-58v4.143a8.294,8.294,0,0,0-8.286,8.286h6.214a2.073,2.073,0,0,1,2.071,2.072v8.285a2.073,2.073,0,0,1-2.071,2.072Z" transform="translate(-1479 58)" fill="#18b6ff"/>
</svg>
