<svg xmlns="http://www.w3.org/2000/svg" width="60.102" height="60.102" viewBox="0 0 60.102 60.102">
  <path id="path3524_1_" d="M43.969,3.4a30.079,30.079,0,0,1,0,53.3v-3.48a27.325,27.325,0,0,0,9.015-8.778l-9.015-3.8V35.112l9.885,7.908A26.784,26.784,0,0,0,57.1,30.209,27.367,27.367,0,0,0,43.969,6.8V3.4ZM30.051,0A29.693,29.693,0,0,1,43.969,3.4V6.8a27.013,27.013,0,0,0-13.048-3.8l3.4,24.594,9.648,7.513v5.536L30.051,35.033,16.133,40.648V35.112L25.859,27.6l3.4-24.594A26.478,26.478,0,0,0,16.133,6.8V3.4A29.693,29.693,0,0,1,30.051,0ZM43.969,56.7a30.184,30.184,0,0,1-27.837,0v-3.48a26.934,26.934,0,0,0,27.837,0V56.7Zm-27.837,0a30.079,30.079,0,0,1,0-53.3V6.8A27.084,27.084,0,0,0,6.247,42.862l9.885-7.75v5.536L7.2,44.444a26.36,26.36,0,0,0,8.936,8.778V56.7Z" fill="#4aace9"/>
</svg>
