<svg xmlns="http://www.w3.org/2000/svg" width="232.143" height="61.166" viewBox="0 0 232.143 61.166">
  <g id="Group_3" data-name="Group 3" transform="translate(-535.765 -586.912)">
    <path id="Path_28" data-name="Path 28" d="M547.736,596.116a6,6,0,0,1-.457,2.366,5.612,5.612,0,0,1-3.174,3.08,6.675,6.675,0,0,1-4.731,0,5.608,5.608,0,0,1-1.9-1.218,5.74,5.74,0,0,1-1.251-1.862,5.968,5.968,0,0,1-.459-2.366,5.884,5.884,0,0,1,.459-2.354,5.636,5.636,0,0,1,1.251-1.839,5.7,5.7,0,0,1,1.9-1.206,6.676,6.676,0,0,1,4.731,0,5.772,5.772,0,0,1,1.907,1.206,5.529,5.529,0,0,1,1.267,1.839A5.915,5.915,0,0,1,547.736,596.116Zm-2.3.012a4.7,4.7,0,0,0-.246-1.519,3.86,3.86,0,0,0-.716-1.273,3.451,3.451,0,0,0-1.163-.876,4.021,4.021,0,0,0-3.172,0,3.468,3.468,0,0,0-1.163.876,3.862,3.862,0,0,0-.718,1.273,4.811,4.811,0,0,0,0,3.037,4,4,0,0,0,.718,1.284,3.369,3.369,0,0,0,1.163.886,4,4,0,0,0,3.172,0,3.353,3.353,0,0,0,1.163-.886,4,4,0,0,0,.716-1.284A4.691,4.691,0,0,0,545.439,596.128Z" transform="translate(0 3.21)"/>
    <path id="Path_29" data-name="Path 29" d="M550.084,593.4a2.88,2.88,0,0,0-1.054-1,3.03,3.03,0,0,0-1.524-.386,3.488,3.488,0,0,0-.748.082,2.183,2.183,0,0,0-.668.258,1.4,1.4,0,0,0-.468.445,1.2,1.2,0,0,0-.176.667,1.11,1.11,0,0,0,.633,1.042,7.759,7.759,0,0,0,1.9.621,11.747,11.747,0,0,1,1.476.445,4.616,4.616,0,0,1,1.183.644,2.751,2.751,0,0,1,.783.925,2.675,2.675,0,0,1,.283,1.265,3.42,3.42,0,0,1-.375,1.663,3.252,3.252,0,0,1-1,1.113,4.078,4.078,0,0,1-1.417.621,7.142,7.142,0,0,1-1.642.187,6.484,6.484,0,0,1-2.469-.492,4.855,4.855,0,0,1-2-1.5l1.571-1.335a3.559,3.559,0,0,0,1.23,1.1,3.424,3.424,0,0,0,1.722.445,3.892,3.892,0,0,0,.808-.082,2.309,2.309,0,0,0,.7-.269,1.451,1.451,0,0,0,.5-.492,1.473,1.473,0,0,0,.187-.773,1.217,1.217,0,0,0-.738-1.148,9.881,9.881,0,0,0-2.169-.7q-.559-.141-1.136-.34a3.792,3.792,0,0,1-1.04-.551,2.758,2.758,0,0,1-.761-.878,2.646,2.646,0,0,1-.293-1.3,3.075,3.075,0,0,1,.363-1.534,3.162,3.162,0,0,1,.949-1.054,4.151,4.151,0,0,1,1.335-.609,5.985,5.985,0,0,1,1.546-.2,5.894,5.894,0,0,1,2.307.469,3.816,3.816,0,0,1,1.722,1.358Z" transform="translate(6.694 3.21)"/>
    <path id="Path_30" data-name="Path 30" d="M551.011,598.486h.07l4.661-4.825h2.951l-5.2,5.036,5.645,6.066h-3.045L551.081,599h-.07v5.762h-2.2V587.056h2.2Z" transform="translate(12.417 0.137)"/>
    <path id="Path_31" data-name="Path 31" d="M562.347,594.5a2.209,2.209,0,0,0-.75-1.839,3.1,3.1,0,0,0-1.991-.6,4.369,4.369,0,0,0-1.768.363,4.477,4.477,0,0,0-1.394.925l-1.171-1.405a5.912,5.912,0,0,1,2-1.218,7.155,7.155,0,0,1,2.541-.445,5.747,5.747,0,0,1,2.073.34,3.921,3.921,0,0,1,1.44.925,3.79,3.79,0,0,1,.843,1.382,5.1,5.1,0,0,1,.281,1.71v4.849q0,.562.035,1.183a5.88,5.88,0,0,0,.129,1.019h-1.991a6.935,6.935,0,0,1-.187-1.593h-.07a4.279,4.279,0,0,1-1.534,1.382,4.6,4.6,0,0,1-2.19.49,5.728,5.728,0,0,1-1.37-.174,3.98,3.98,0,0,1-1.3-.574,3.241,3.241,0,0,1-.972-1.054,3.135,3.135,0,0,1-.387-1.616,2.841,2.841,0,0,1,.679-2,4.3,4.3,0,0,1,1.778-1.124,10.074,10.074,0,0,1,2.485-.5q1.382-.117,2.787-.117Zm-.539,1.9q-.82,0-1.7.07a7.844,7.844,0,0,0-1.593.281,3,3,0,0,0-1.183.632,1.439,1.439,0,0,0-.469,1.124,1.556,1.556,0,0,0,.2.82,1.658,1.658,0,0,0,.527.539,2.091,2.091,0,0,0,.726.293,4.057,4.057,0,0,0,.82.082,3.031,3.031,0,0,0,2.378-.925,3.357,3.357,0,0,0,.832-2.331V596.4Z" transform="translate(17.946 3.21)"/>
    <path id="Path_32" data-name="Path 32" d="M561.563,591.83c-.016-.469-.041-.882-.07-1.241h2.085c.031.281.053.605.07.972s.024.668.024.9h.07a3.84,3.84,0,0,1,1.37-1.581,3.583,3.583,0,0,1,2.026-.6,3.429,3.429,0,0,1,.867.094l-.094,2.038a4.143,4.143,0,0,0-1.007-.117,3.051,3.051,0,0,0-1.382.293,2.821,2.821,0,0,0-.972.785,3.316,3.316,0,0,0-.574,1.136,4.793,4.793,0,0,0-.189,1.347v5.832h-2.2v-8.713Q561.587,592.533,561.563,591.83Z" transform="translate(24.491 3.21)"/>
    <path id="Path_33" data-name="Path 33" d="M570.634,594.582H565.2v-1.85h5.432Z" transform="translate(28.022 5.54)"/>
    <path id="Path_34" data-name="Path 34" d="M568.375,607.8a3.672,3.672,0,0,0,.89.117,1.485,1.485,0,0,0,.8-.189,1.246,1.246,0,0,0,.468-.5,2.288,2.288,0,0,0,.223-.75,6.633,6.633,0,0,0,.058-.925V593.09h2.2v12.531a8,8,0,0,1-.152,1.593,3.6,3.6,0,0,1-.55,1.335,2.724,2.724,0,0,1-1.1.925,4.141,4.141,0,0,1-1.8.34,4.932,4.932,0,0,1-.656-.047c-.236-.031-.439-.062-.611-.094Zm5.015-18.715a1.311,1.311,0,0,1-.435,1.007,1.487,1.487,0,0,1-1.042.4,1.455,1.455,0,0,1-1.04-.41,1.314,1.314,0,0,1-.435-1,1.34,1.34,0,0,1,.435-1.019,1.528,1.528,0,0,1,2.083,0A1.347,1.347,0,0,1,573.39,589.085Z" transform="translate(30.819 0.708)"/>
    <path id="Path_35" data-name="Path 35" d="M579.915,597a2.208,2.208,0,0,0-.75-1.839,3.1,3.1,0,0,0-1.989-.6,4.379,4.379,0,0,0-1.77.363,4.443,4.443,0,0,0-1.392.925l-1.173-1.406a5.914,5.914,0,0,1,2-1.218,7.166,7.166,0,0,1,2.541-.445,5.755,5.755,0,0,1,2.075.34,3.911,3.911,0,0,1,1.438.925,3.821,3.821,0,0,1,.845,1.382,5.145,5.145,0,0,1,.279,1.71v4.848q0,.562.037,1.183a5.913,5.913,0,0,0,.127,1.019H580.2a6.823,6.823,0,0,1-.189-1.593h-.068a4.3,4.3,0,0,1-1.534,1.382,4.615,4.615,0,0,1-2.19.49,5.748,5.748,0,0,1-1.372-.174,4,4,0,0,1-1.3-.574,3.24,3.24,0,0,1-.972-1.054,3.134,3.134,0,0,1-.387-1.616,2.835,2.835,0,0,1,.681-2,4.281,4.281,0,0,1,1.778-1.124,10.069,10.069,0,0,1,2.483-.5c.921-.078,1.852-.117,2.787-.117Zm-6.229-7.917a1.4,1.4,0,0,1,.41-1,1.366,1.366,0,0,1,1.042-.433,1.418,1.418,0,0,1,1.029.41,1.356,1.356,0,0,1,.422,1.019,1.329,1.329,0,0,1-.422,1,1.418,1.418,0,0,1-1.029.41,1.44,1.44,0,0,1-1.452-1.405Zm5.692,9.814q-.823,0-1.7.07a7.868,7.868,0,0,0-1.595.281,2.991,2.991,0,0,0-1.181.632,1.434,1.434,0,0,0-.47,1.124,1.573,1.573,0,0,0,.2.82,1.654,1.654,0,0,0,.527.539,2.116,2.116,0,0,0,.728.293,4.034,4.034,0,0,0,.818.082,3.028,3.028,0,0,0,2.377-.925,3.356,3.356,0,0,0,.832-2.331V598.9Zm-1.148-9.814a1.4,1.4,0,0,1,.41-1,1.366,1.366,0,0,1,1.04-.433,1.419,1.419,0,0,1,1.03.41,1.356,1.356,0,0,1,.422,1.019,1.329,1.329,0,0,1-.422,1,1.419,1.419,0,0,1-1.03.41,1.44,1.44,0,0,1-1.45-1.405Z" transform="translate(34.669 0.708)"/>
    <path id="Path_36" data-name="Path 36" d="M580.33,603.588a5.27,5.27,0,0,0,1.815,1.31,5.383,5.383,0,0,0,2.237.494,4.788,4.788,0,0,0,1.852-.316,3.111,3.111,0,0,0,1.2-.867,3.369,3.369,0,0,0,.656-1.3,6.281,6.281,0,0,0,.2-1.616v-1.429h-.047a3.9,3.9,0,0,1-1.663,1.429,5.254,5.254,0,0,1-2.249.492,5.82,5.82,0,0,1-2.307-.445,5.182,5.182,0,0,1-1.768-1.218,5.47,5.47,0,0,1-1.124-1.815,6.215,6.215,0,0,1-.4-2.237,6.31,6.31,0,0,1,.4-2.249,5.577,5.577,0,0,1,1.124-1.839,5.269,5.269,0,0,1,1.757-1.241,5.61,5.61,0,0,1,2.3-.457,5.277,5.277,0,0,1,2.284.515,3.932,3.932,0,0,1,1.722,1.569h.047v-1.78H590.5v10.54a8.786,8.786,0,0,1-.3,2.331,5.087,5.087,0,0,1-1.029,1.967,5.2,5.2,0,0,1-1.9,1.37,7.208,7.208,0,0,1-2.9.515,8.551,8.551,0,0,1-2.916-.527,7.432,7.432,0,0,1-2.52-1.487Zm.656-7.566a4.437,4.437,0,0,0,.246,1.476,3.646,3.646,0,0,0,1.893,2.108,3.523,3.523,0,0,0,1.55.328,3.874,3.874,0,0,0,1.552-.3,3.568,3.568,0,0,0,1.2-.832,3.724,3.724,0,0,0,.763-1.241,4.356,4.356,0,0,0,.269-1.534,4.194,4.194,0,0,0-.269-1.5,3.774,3.774,0,0,0-1.973-2.1,3.669,3.669,0,0,0-1.54-.316,3.632,3.632,0,0,0-1.55.316,3.579,3.579,0,0,0-1.163.843,3.529,3.529,0,0,0-.73,1.241A4.611,4.611,0,0,0,580.986,596.023Z" transform="translate(40.906 3.21)"/>
    <path id="Path_37" data-name="Path 37" d="M597.424,596.046v.375a3.413,3.413,0,0,1-.022.375H588.57a3.282,3.282,0,0,0,.316,1.314,3.43,3.43,0,0,0,.787,1.07,3.573,3.573,0,0,0,1.136.711,3.961,3.961,0,0,0,3.312-.236,3.966,3.966,0,0,0,1.288-1.195l1.546,1.241a5.541,5.541,0,0,1-2.1,1.739,6.726,6.726,0,0,1-5.022.135,5.4,5.4,0,0,1-1.852-1.183,5.513,5.513,0,0,1-1.218-1.839,6.2,6.2,0,0,1-.445-2.389,6.375,6.375,0,0,1,.433-2.378,5.451,5.451,0,0,1,1.21-1.862,5.516,5.516,0,0,1,1.831-1.206,6.287,6.287,0,0,1,4.5-.035,4.579,4.579,0,0,1,1.69,1.148,5.173,5.173,0,0,1,1.068,1.815A7.208,7.208,0,0,1,597.424,596.046Zm-2.249-.89a4.25,4.25,0,0,0-.22-1.23,2.857,2.857,0,0,0-.588-1,2.765,2.765,0,0,0-.958-.667,3.415,3.415,0,0,0-1.349-.246,3.558,3.558,0,0,0-1.323.246,3.461,3.461,0,0,0-1.078.667,3.556,3.556,0,0,0-.75,1,3.174,3.174,0,0,0-.34,1.23Z" transform="translate(48.125 3.21)"/>
    <path id="Path_38" data-name="Path 38" d="M593.591,591.83q-.023-.7-.07-1.241h2.085q.047.422.07.972t.023.9h.07a3.843,3.843,0,0,1,1.37-1.581,3.588,3.588,0,0,1,2.028-.6,3.414,3.414,0,0,1,.865.094l-.094,2.038a4.142,4.142,0,0,0-1.007-.117,3.056,3.056,0,0,0-1.382.293,2.822,2.822,0,0,0-.972.785,3.354,3.354,0,0,0-.574,1.136,4.8,4.8,0,0,0-.187,1.347v5.832h-2.2v-8.713Q593.615,592.533,593.591,591.83Z" transform="translate(54.979 3.21)"/>
    <path id="Path_39" data-name="Path 39" d="M602.661,594.582h-5.432v-1.85h5.432Z" transform="translate(58.509 5.54)"/>
    <path id="Path_40" data-name="Path 40" d="M608.139,593.4a2.881,2.881,0,0,0-1.054-1,3.027,3.027,0,0,0-1.522-.386,3.493,3.493,0,0,0-.75.082,2.2,2.2,0,0,0-.668.258,1.4,1.4,0,0,0-.468.445,1.2,1.2,0,0,0-.176.667,1.11,1.11,0,0,0,.633,1.042,7.759,7.759,0,0,0,1.9.621,11.76,11.76,0,0,1,1.476.445,4.62,4.62,0,0,1,1.183.644,2.778,2.778,0,0,1,.785.925,2.7,2.7,0,0,1,.281,1.265,3.4,3.4,0,0,1-.375,1.663,3.253,3.253,0,0,1-1,1.113,4.079,4.079,0,0,1-1.417.621,7.126,7.126,0,0,1-1.64.187,6.485,6.485,0,0,1-2.471-.492,4.854,4.854,0,0,1-2-1.5l1.571-1.335a3.594,3.594,0,0,0,1.23,1.1,3.429,3.429,0,0,0,1.722.445,3.891,3.891,0,0,0,.808-.082,2.309,2.309,0,0,0,.7-.269,1.359,1.359,0,0,0,.691-1.265,1.217,1.217,0,0,0-.738-1.148,9.9,9.9,0,0,0-2.167-.7q-.562-.141-1.136-.34a3.805,3.805,0,0,1-1.042-.551,2.756,2.756,0,0,1-.761-.878,2.646,2.646,0,0,1-.293-1.3,3.077,3.077,0,0,1,.363-1.534,3.163,3.163,0,0,1,.949-1.054,4.151,4.151,0,0,1,1.335-.609,6,6,0,0,1,1.546-.2,5.886,5.886,0,0,1,2.307.469,3.816,3.816,0,0,1,1.722,1.358Z" transform="translate(61.957 3.21)"/>
    <path id="Path_41" data-name="Path 41" d="M613.166,593.8h-2.951v5.768A2.189,2.189,0,0,0,610.59,601a1.5,1.5,0,0,0,1.195.431,3.636,3.636,0,0,0,.656-.065,2.662,2.662,0,0,0,.632-.193l.07,1.8a5.546,5.546,0,0,1-.878.222,5.9,5.9,0,0,1-1,.082,3.173,3.173,0,0,1-2.4-.867,3.624,3.624,0,0,1-.831-2.6V593.8h-2.131v-1.8h2.131v-3.186h2.178v3.186h2.951Z" transform="translate(66.767 1.805)"/>
    <path id="Path_42" data-name="Path 42" d="M610.811,591.83c-.014-.469-.039-.882-.07-1.241h2.087q.044.422.07.972c.016.367.022.668.022.9h.072a3.827,3.827,0,0,1,1.37-1.581,3.578,3.578,0,0,1,2.026-.6,3.4,3.4,0,0,1,.865.094l-.094,2.038a4.136,4.136,0,0,0-1.005-.117,3.045,3.045,0,0,0-1.382.293,2.786,2.786,0,0,0-.972.785,3.287,3.287,0,0,0-.574,1.136,4.73,4.73,0,0,0-.189,1.347v5.832h-2.2v-8.713Q610.835,592.533,610.811,591.83Z" transform="translate(71.371 3.21)"/>
    <path id="Path_43" data-name="Path 43" d="M622.287,594.5a2.208,2.208,0,0,0-.75-1.839,3.1,3.1,0,0,0-1.991-.6,4.37,4.37,0,0,0-1.769.363,4.476,4.476,0,0,0-1.394.925l-1.171-1.405a5.911,5.911,0,0,1,2-1.218,7.156,7.156,0,0,1,2.541-.445,5.748,5.748,0,0,1,2.073.34,3.918,3.918,0,0,1,1.44.925,3.814,3.814,0,0,1,.843,1.382,5.1,5.1,0,0,1,.281,1.71v4.849q0,.562.035,1.183a5.88,5.88,0,0,0,.129,1.019h-1.991a6.938,6.938,0,0,1-.189-1.593h-.068a4.281,4.281,0,0,1-1.534,1.382,4.6,4.6,0,0,1-2.19.49,5.716,5.716,0,0,1-1.37-.174,3.981,3.981,0,0,1-1.3-.574,3.241,3.241,0,0,1-.972-1.054,3.135,3.135,0,0,1-.387-1.616,2.841,2.841,0,0,1,.679-2,4.3,4.3,0,0,1,1.778-1.124,10.073,10.073,0,0,1,2.485-.5q1.382-.117,2.787-.117Zm-.539,1.9q-.82,0-1.7.07a7.843,7.843,0,0,0-1.593.281,3,3,0,0,0-1.183.632,1.438,1.438,0,0,0-.468,1.124,1.556,1.556,0,0,0,.2.82,1.658,1.658,0,0,0,.527.539,2.09,2.09,0,0,0,.726.293,4.057,4.057,0,0,0,.82.082,3.031,3.031,0,0,0,2.378-.925,3.356,3.356,0,0,0,.832-2.331V596.4Z" transform="translate(75.003 3.21)"/>
    <path id="Path_44" data-name="Path 44" d="M623.671,604.9h-2.2V592.6a8.293,8.293,0,0,1,.268-2.085,5.015,5.015,0,0,1,.89-1.827,4.55,4.55,0,0,1,1.639-1.288,5.778,5.778,0,0,1,2.518-.492,5.419,5.419,0,0,1,1.874.316,4.641,4.641,0,0,1,1.513.89,4.1,4.1,0,0,1,1.005,1.37,4.245,4.245,0,0,1,.365,1.78,3.634,3.634,0,0,1-2.6,3.607v.047a4.9,4.9,0,0,1,1.607.539,4.1,4.1,0,0,1,1.222,1.019,4.694,4.694,0,0,1,.781,1.44,5.508,5.508,0,0,1,.279,1.78,6,6,0,0,1-.4,2.225,4.954,4.954,0,0,1-1.134,1.733,5.058,5.058,0,0,1-1.788,1.124,6.626,6.626,0,0,1-2.36.4,7.851,7.851,0,0,1-1.661-.185v-1.827a4.585,4.585,0,0,0,.669.117,6.454,6.454,0,0,0,.714.047,3.689,3.689,0,0,0,2.7-.988,3.632,3.632,0,0,0,1.009-2.725,3.942,3.942,0,0,0-.307-1.61,2.981,2.981,0,0,0-.853-1.138,3.771,3.771,0,0,0-1.288-.671,5.542,5.542,0,0,0-1.6-.222h-.257v-1.921h.257a3.056,3.056,0,0,0,2.026-.656,2.361,2.361,0,0,0,.785-1.921,2.6,2.6,0,0,0-.714-1.886,2.565,2.565,0,0,0-1.932-.738,2.85,2.85,0,0,0-1.523.363,2.761,2.761,0,0,0-.925.925,3.465,3.465,0,0,0-.457,1.241,7.533,7.533,0,0,0-.117,1.312Z" transform="translate(81.583 0)"/>
    <path id="Path_45" data-name="Path 45" d="M639.558,596.046v.375a3.017,3.017,0,0,1-.024.375H630.7a3.253,3.253,0,0,0,.318,1.314,3.4,3.4,0,0,0,.785,1.07,3.576,3.576,0,0,0,1.136.711,3.961,3.961,0,0,0,3.312-.236,3.967,3.967,0,0,0,1.288-1.195l1.546,1.241a5.525,5.525,0,0,1-2.1,1.739,6.726,6.726,0,0,1-5.022.135,5.392,5.392,0,0,1-1.85-1.183,5.455,5.455,0,0,1-1.218-1.839,6.166,6.166,0,0,1-.447-2.389,6.336,6.336,0,0,1,.435-2.378,5.417,5.417,0,0,1,1.208-1.862,5.537,5.537,0,0,1,1.831-1.206,6.287,6.287,0,0,1,4.5-.035,4.579,4.579,0,0,1,1.69,1.148,5.142,5.142,0,0,1,1.068,1.815A7.206,7.206,0,0,1,639.558,596.046Zm-2.251-.89a4.25,4.25,0,0,0-.221-1.23,2.828,2.828,0,0,0-.588-1,2.762,2.762,0,0,0-.958-.667,3.4,3.4,0,0,0-1.347-.246,3.552,3.552,0,0,0-1.323.246,3.447,3.447,0,0,0-1.079.667,3.593,3.593,0,0,0-.749,1,3.209,3.209,0,0,0-.34,1.23Z" transform="translate(88.231 3.21)"/>
    <path id="Path_46" data-name="Path 46" d="M643.889,602.251h-2.251v-9.767l-2.153,1.85-1.312-1.523,3.773-3.115h1.942Z" transform="translate(97.485 2.65)"/>
    <path id="Path_47" data-name="Path 47" d="M651.383,595.6q-.949,1.991-1.825,3.935t-1.653,3.748q-.773,1.8-1.357,3.256l-2.3-.609q.659-1.5,1.534-3.408t1.817-3.876q.934-1.968,1.813-3.795t1.558-3.139h-7.915V589.7h10.211v2.061Q652.332,593.608,651.383,595.6Z" transform="translate(102.134 2.65)"/>
    <path id="Path_48" data-name="Path 48" d="M657.634,592.671c-.427.359-.878.73-1.345,1.113s-.941.754-1.419,1.113-.9.671-1.275.937v.094a3.207,3.207,0,0,1,.75-.07,5.57,5.57,0,0,1,2.014.351,4.866,4.866,0,0,1,1.581.972,4.418,4.418,0,0,1,1.415,3.291,5.688,5.688,0,0,1-.5,2.436,5.157,5.157,0,0,1-1.392,1.815,6.153,6.153,0,0,1-2.143,1.124,9.311,9.311,0,0,1-2.752.387c-.439,0-.878-.016-1.323-.047a8.483,8.483,0,0,1-1.206-.164l.328-1.967a7.48,7.48,0,0,0,1.029.176,10.668,10.668,0,0,0,1.1.058,5.248,5.248,0,0,0,3.385-.96,3.306,3.306,0,0,0,1.183-2.717,2.922,2.922,0,0,0-.949-2.237,4.253,4.253,0,0,0-2.963-.878,7.131,7.131,0,0,0-1.218.105c-.406.07-.8.152-1.171.246l-.447-1.663c.437-.328.927-.695,1.464-1.1s1.07-.82,1.595-1.241l1.476-1.195q.688-.562,1.112-.96v-.094H649.8v-1.9h8.9v2.038C658.421,592,658.063,592.312,657.634,592.671Z" transform="translate(108.553 2.65)"/>
    <path id="Path_49" data-name="Path 49" d="M539.125,611.637a10.637,10.637,0,0,0-2.836.424l.939-7.964h8.2v2.012h-6.348l-.537,3.865a6.935,6.935,0,0,1,1.427-.14,6.364,6.364,0,0,1,2.1.34,4.768,4.768,0,0,1,1.677.984,4.662,4.662,0,0,1,1.111,1.571,5.08,5.08,0,0,1,.41,2.1,6.1,6.1,0,0,1-.48,2.5,5.114,5.114,0,0,1-1.335,1.817,5.683,5.683,0,0,1-2.059,1.111,8.846,8.846,0,0,1-2.637.375c-.422,0-.874-.014-1.357-.047a8.706,8.706,0,0,1-1.267-.164l.306-1.968a8.22,8.22,0,0,0,2.132.258,5,5,0,0,0,3.336-.958,3.543,3.543,0,0,0,1.114-2.834,3.331,3.331,0,0,0-.295-1.454,2.82,2.82,0,0,0-.82-1.019,3.522,3.522,0,0,0-1.24-.607A5.621,5.621,0,0,0,539.125,611.637Z" transform="translate(0.343 27.446)"/>
    <path id="Path_50" data-name="Path 50" d="M555.927,610.485a6.781,6.781,0,0,1-.513,2.67,6.226,6.226,0,0,1-1.429,2.1,6.555,6.555,0,0,1-2.155,1.372,7.244,7.244,0,0,1-2.694.492,7.09,7.09,0,0,1-2.658-.492,6.434,6.434,0,0,1-2.132-1.372,6.314,6.314,0,0,1-1.417-2.1,7.205,7.205,0,0,1,0-5.352,6.165,6.165,0,0,1,3.549-3.408,7.443,7.443,0,0,1,2.658-.467,7.606,7.606,0,0,1,2.694.467,6.348,6.348,0,0,1,2.155,1.337,6.122,6.122,0,0,1,1.429,2.071A6.757,6.757,0,0,1,555.927,610.485Zm-2.411,0a5.294,5.294,0,0,0-.3-1.815,4.079,4.079,0,0,0-2.26-2.4,4.538,4.538,0,0,0-1.815-.351,4.387,4.387,0,0,0-1.78.351,4.027,4.027,0,0,0-1.358.96,4.253,4.253,0,0,0-.867,1.441,5.251,5.251,0,0,0-.3,1.815,5.441,5.441,0,0,0,.3,1.839A4.338,4.338,0,0,0,546,613.8a3.952,3.952,0,0,0,1.358.972,4.358,4.358,0,0,0,1.78.351,4.509,4.509,0,0,0,1.815-.351,4.083,4.083,0,0,0,1.382-.972,4.272,4.272,0,0,0,.878-1.476A5.487,5.487,0,0,0,553.517,610.485Z" transform="translate(6.329 27.287)"/>
    <path id="Path_51" data-name="Path 51" d="M558.764,610.086a3.851,3.851,0,0,1,1.232.549,4.363,4.363,0,0,1,.994.927,4.27,4.27,0,0,1,.668,1.239,4.517,4.517,0,0,1,.246,1.5,4.721,4.721,0,0,1-.443,2.085,4.617,4.617,0,0,1-1.208,1.546,5.474,5.474,0,0,1-1.768.972,6.573,6.573,0,0,1-2.131.34,6.69,6.69,0,0,1-2.143-.34,5.421,5.421,0,0,1-1.778-.972,4.567,4.567,0,0,1-1.208-1.546,4.7,4.7,0,0,1-.445-2.085,4.564,4.564,0,0,1,.246-1.521,4.083,4.083,0,0,1,1.686-2.145,4.731,4.731,0,0,1,1.206-.549v-.049a3.772,3.772,0,0,1-2.553-3.7,4.242,4.242,0,0,1,.4-1.86,4.435,4.435,0,0,1,1.077-1.431,4.7,4.7,0,0,1,1.581-.911,5.989,5.989,0,0,1,3.853,0,4.738,4.738,0,0,1,1.581.89,4.212,4.212,0,0,1,1.464,3.266,3.979,3.979,0,0,1-.714,2.366,3.612,3.612,0,0,1-1.839,1.382Zm-5.668,4.1a3.448,3.448,0,0,0,.234,1.29,2.734,2.734,0,0,0,.668.994,3.143,3.143,0,0,0,1.033.644,3.577,3.577,0,0,0,1.321.234,3.521,3.521,0,0,0,1.3-.234,3.024,3.024,0,0,0,1.019-.644,2.95,2.95,0,0,0,.669-.994,3.3,3.3,0,0,0,.246-1.29,3.139,3.139,0,0,0-.915-2.249,2.938,2.938,0,0,0-1.019-.656,3.725,3.725,0,0,0-2.6,0,3.011,3.011,0,0,0-1.71,1.653A3.132,3.132,0,0,0,553.1,614.183Zm.515-7.788a2.778,2.778,0,0,0,.2,1.06,2.572,2.572,0,0,0,.564.859,2.689,2.689,0,0,0,.871.576,2.776,2.776,0,0,0,1.093.211,2.633,2.633,0,0,0,1.058-.211,2.877,2.877,0,0,0,.872-.576,2.735,2.735,0,0,0,.576-3.012,2.834,2.834,0,0,0-.589-.87,2.549,2.549,0,0,0-.859-.564,2.805,2.805,0,0,0-1.058-.2,2.958,2.958,0,0,0-1.093.2,2.484,2.484,0,0,0-1.435,1.435A2.92,2.92,0,0,0,553.611,606.4Z" transform="translate(14.29 25.275)"/>
    <path id="Path_52" data-name="Path 52" d="M567.766,616.81H558.14v-1.989l1.335-.89q1.475-.984,2.577-1.747a18.178,18.178,0,0,0,1.837-1.427,5.836,5.836,0,0,0,1.115-1.3,2.666,2.666,0,0,0,.375-1.382,2.114,2.114,0,0,0-.656-1.606,2.851,2.851,0,0,0-2.014-.621,3.344,3.344,0,0,0-1.827.517,3.92,3.92,0,0,0-1.335,1.427l-1.665-1.169a5.519,5.519,0,0,1,2.063-1.981,5.711,5.711,0,0,1,2.809-.713,5.421,5.421,0,0,1,3.6,1.075,3.714,3.714,0,0,1,1.277,3,3.85,3.85,0,0,1-.445,1.837A6.7,6.7,0,0,1,566,611.413a12.078,12.078,0,0,1-1.71,1.4q-.972.668-2,1.347l-.986.632v.07h6.467Z" transform="translate(21.052 27.287)"/>
    <path id="Path_53" data-name="Path 53" d="M567.635,611.637a10.638,10.638,0,0,0-2.834.424l.939-7.964h8.2v2.012h-6.348l-.537,3.865a6.92,6.92,0,0,1,1.427-.14,6.364,6.364,0,0,1,2.1.34,4.8,4.8,0,0,1,1.677.984,4.692,4.692,0,0,1,1.111,1.571,5.081,5.081,0,0,1,.41,2.1,6.1,6.1,0,0,1-.48,2.5,5.118,5.118,0,0,1-1.335,1.817,5.683,5.683,0,0,1-2.059,1.111,8.863,8.863,0,0,1-2.637.375c-.422,0-.874-.014-1.357-.047a8.7,8.7,0,0,1-1.267-.164l.3-1.968a8.239,8.239,0,0,0,2.131.258,5,5,0,0,0,3.338-.958,3.543,3.543,0,0,0,1.115-2.834,3.331,3.331,0,0,0-.295-1.454,2.818,2.818,0,0,0-.82-1.019,3.513,3.513,0,0,0-1.241-.607A5.611,5.611,0,0,0,567.635,611.637Z" transform="translate(27.484 27.446)"/>
    <path id="Path_54" data-name="Path 54" d="M576.4,612.888h.07l4.659-4.827h2.951l-5.2,5.036,5.645,6.067h-3.047l-5.011-5.762h-.07v5.762h-2.2V601.456h2.2Z" transform="translate(36.588 24.932)"/>
    <path id="Path_55" data-name="Path 55" d="M591.859,613.017a6.01,6.01,0,0,1-.457,2.368,5.616,5.616,0,0,1-3.174,3.078,6.647,6.647,0,0,1-4.731,0,5.608,5.608,0,0,1-1.9-1.218,5.749,5.749,0,0,1-1.251-1.86,5.975,5.975,0,0,1-.459-2.368,5.864,5.864,0,0,1,.459-2.352,5.645,5.645,0,0,1,1.251-1.841,5.764,5.764,0,0,1,1.9-1.206,6.7,6.7,0,0,1,4.731,0,5.839,5.839,0,0,1,1.907,1.206,5.54,5.54,0,0,1,1.267,1.841A5.9,5.9,0,0,1,591.859,613.017Zm-9.721-9.533a1.42,1.42,0,0,1,.408-1,1.381,1.381,0,0,1,1.044-.432,1.417,1.417,0,0,1,1.031.41,1.356,1.356,0,0,1,.422,1.017,1.336,1.336,0,0,1-.422,1,1.427,1.427,0,0,1-1.031.412,1.44,1.44,0,0,1-1.452-1.407Zm7.423,9.547a4.693,4.693,0,0,0-.246-1.52,3.854,3.854,0,0,0-.716-1.271,3.448,3.448,0,0,0-1.163-.876,4,4,0,0,0-3.172,0,3.469,3.469,0,0,0-1.163.876,3.854,3.854,0,0,0-.716,1.271,4.811,4.811,0,0,0,0,3.037,3.981,3.981,0,0,0,.716,1.284,3.377,3.377,0,0,0,1.163.888,4.021,4.021,0,0,0,3.172,0,3.357,3.357,0,0,0,1.163-.888,3.981,3.981,0,0,0,.716-1.284A4.689,4.689,0,0,0,589.562,613.031Zm-2.858-9.547a1.421,1.421,0,0,1,.41-1,1.381,1.381,0,0,1,1.044-.432,1.418,1.418,0,0,1,1.031.41,1.363,1.363,0,0,1,.422,1.017,1.343,1.343,0,0,1-.422,1,1.427,1.427,0,0,1-1.031.412,1.443,1.443,0,0,1-1.454-1.407Z" transform="translate(42.001 25.505)"/>
    <path id="Path_56" data-name="Path 56" d="M589.807,619.164h-2.2V601.456h2.2Z" transform="translate(49.347 24.932)"/>
    <path id="Path_57" data-name="Path 57" d="M592.738,604.988q.047.421.07.949t.023.878h.07a3.191,3.191,0,0,1,.574-.83,4.232,4.232,0,0,1,.832-.681,4.019,4.019,0,0,1,1.031-.455,4.164,4.164,0,0,1,1.171-.164,4.322,4.322,0,0,1,1.85.361,3.769,3.769,0,0,1,1.288.972,3.922,3.922,0,0,1,.761,1.431,6.08,6.08,0,0,1,.246,1.755v6.886h-2.2v-6.16a7.58,7.58,0,0,0-.106-1.288,3.1,3.1,0,0,0-.386-1.077,2.1,2.1,0,0,0-.773-.75,2.549,2.549,0,0,0-1.265-.281,2.666,2.666,0,0,0-2.143,1,4.008,4.008,0,0,0-.832,2.657v5.9h-2.2v-8.713c0-.3-.008-.677-.023-1.146s-.041-.884-.07-1.243Z" transform="translate(52.249 28.006)"/>
  </g>
</svg>
