<svg xmlns="http://www.w3.org/2000/svg" width="617.01" height="629.118" viewBox="0 0 617.01 629.118">
  <g id="Group_76063" data-name="Group 76063" transform="translate(261.83 -3297.481)">
    <path id="Path_3336" data-name="Path 3336" d="M-1661.643,3552.77c4.454-1.572,229.8-98.3,325.682-139.462,25.851-11.1,42.29-18.161,42.29-18.161" transform="matrix(0.921, 0.391, -0.391, 0.921, 2768.891, 838.707)" fill="none" stroke="#707070" stroke-linecap="round" stroke-width="20"/>
    <path id="Path_3337" data-name="Path 3337" d="M-1661.643,3552.77c4.454-1.572,229.8-98.3,325.682-139.462,25.851-11.1,42.29-18.161,42.29-18.161" transform="matrix(0.921, 0.391, -0.391, 0.921, 2855.378, 939.513)" fill="none" stroke="#707070" stroke-linecap="round" stroke-width="20"/>
    <path id="Path_3338" data-name="Path 3338" d="M-1661.643,3552.77c4.454-1.572,229.8-98.3,325.682-139.462,25.851-11.1,42.29-18.161,42.29-18.161" transform="matrix(0.921, 0.391, -0.391, 0.921, 2673.109, 1048.999)" fill="none" stroke="#707070" stroke-linecap="round" stroke-width="20"/>
    <path id="Path_3339" data-name="Path 3339" d="M-1661.643,3552.77c4.454-1.572,229.8-98.3,325.682-139.462,25.851-11.1,42.29-18.161,42.29-18.161" transform="matrix(0.921, 0.391, -0.391, 0.921, 2693.399, 1144.52)" fill="none" stroke="#707070" stroke-linecap="round" stroke-width="20"/>
  </g>
</svg>
