<svg id="Group_76055" data-name="Group 76055" xmlns="http://www.w3.org/2000/svg" xmlns:xlink="http://www.w3.org/1999/xlink" width="120.752" height="25.539" viewBox="0 0 120.752 25.539">
  <defs>
    <clipPath id="clip-path">
      <path id="Path_3" data-name="Path 3" d="M0-8.121H120.738V-33.374H0Z" transform="translate(0 33.374)" fill="#ff4e00"/>
    </clipPath>
    <clipPath id="clip-path-2">
      <path id="Path_9" data-name="Path 9" d="M0-8.213H120.752V-33.752H0Z" transform="translate(0 33.752)" fill="#ff4e00"/>
    </clipPath>
  </defs>
  <g id="Group_1" data-name="Group 1" transform="translate(0 0.286)" clip-path="url(#clip-path)">
    <path id="Path_2" data-name="Path 2" d="M83.628-33.374l-1.412,3.659-.333.2a11.365,11.365,0,0,0-4.837,6.948,13.257,13.257,0,0,0-.348,2.974,11.063,11.063,0,0,0,7.56,10.835,14.341,14.341,0,0,0,4.823.824c6.874,0,11.837-4.894,11.837-11.755a13.681,13.681,0,0,0-.348-3.131,11.506,11.506,0,0,0-4.615-6.439l-.767-.484,1.4-3.631H91.16l-.808,2.094a13.575,13.575,0,0,0-1.654-.068l-.42,0,.778-2.028Zm3.318,9.613A4.084,4.084,0,0,1,88.79-24.2a4.046,4.046,0,0,1,3.924,2.708,4.682,4.682,0,0,1,.335,1.863,4.423,4.423,0,0,1-2.478,4.2,3.969,3.969,0,0,1-1.811.37c-2.594,0-4.16-2.093-4.193-4.506a4.505,4.505,0,0,1,2.379-4.2" transform="translate(-18.664 33.374)" fill="#ff4e00"/>
  </g>
  <g id="Group_2" data-name="Group 2" transform="translate(0 0)" clip-path="url(#clip-path-2)">
    <path id="Path_4" data-name="Path 4" d="M141.952-29.857h-9.2V-7.566h7.418v-8.873l4.5,8.873h8.378L147.6-16.559a8.039,8.039,0,0,0,1.993-.95,5.675,5.675,0,0,0,2.3-4.987,6.706,6.706,0,0,0-1.44-4.351c-1.593-2.09-3.913-2.788-6.491-2.947C143.293-29.857,142.622-29.857,141.952-29.857Zm-1.784,9.943v-4.171h1.27c1.335,0,2.748.262,2.748,2.038a2.241,2.241,0,0,1-.351,1.253,2.546,2.546,0,0,1-2.364.881h-1.3" transform="translate(-32.304 32.804)" fill="#ff4e00"/>
    <path id="Path_5" data-name="Path 5" d="M59.276-29.857h-9.2V-7.566h7.419v-8.873l4.495,8.873h8.379l-5.442-8.993a8.041,8.041,0,0,0,1.992-.95,5.673,5.673,0,0,0,2.3-4.987,6.7,6.7,0,0,0-1.44-4.351c-1.593-2.09-3.913-2.788-6.491-2.947C60.617-29.857,59.945-29.857,59.276-29.857Zm-1.783,9.943v-4.171h1.27c1.335,0,2.747.262,2.747,2.038a2.239,2.239,0,0,1-.351,1.253,2.547,2.547,0,0,1-2.364.881h-1.3" transform="translate(-12.185 32.804)" fill="#ff4e00"/>
    <path id="Path_6" data-name="Path 6" d="M25.268-29.857v6.446h4.5V-7.566h8V-23.412h4.529v-6.446H25.268" transform="translate(-6.149 32.804)" fill="#ff4e00"/>
    <path id="Path_7" data-name="Path 7" d="M110.612-7.566h15.1v-5.965h-7.741V-16h6.939v-5.676h-6.939v-2.215h7.518v-5.965H110.612V-7.566" transform="translate(-26.917 32.804)" fill="#ff4e00"/>
    <path id="Path_8" data-name="Path 8" d="M15.688-29.678a16.229,16.229,0,0,0-5.714-1.147c-3.4,0-6.821,1.3-8.386,4.488a7.775,7.775,0,0,0-.817,3.514,5.814,5.814,0,0,0,4.216,5.734,27.914,27.914,0,0,0,3.317.763l.523.111c.639.157,1.259.465,1.259,1.25,0,.855-.878,1.556-2.329,1.556-2.01,0-3.945-1.284-5.479-2.345L-.207-9.88A18.622,18.622,0,0,0,8.882-7.41a9.478,9.478,0,0,0,6.788-2.36,7.463,7.463,0,0,0,2.575-5.642,5.96,5.96,0,0,0-4.094-5.9,35.312,35.312,0,0,0-3.6-.955l-.54-.109c-.629-.146-1.3-.436-1.3-1.219,0-.868.774-1.3,2.038-1.332a9.2,9.2,0,0,1,4.7,1.684l2.268-5.525c-.5-.239-1.169-.578-2.026-.914" transform="translate(0.05 33.039)" fill="#ff4e00"/>
  </g>
</svg>
